<?xml version="1.0" encoding="utf-8"?>

<!DOCTYPE svg PUBLIC "-//W3C//DTD SVG 1.1//EN" "http://www.w3.org/Graphics/SVG/1.1/DTD/svg11.dtd">
<!-- Uploaded to: SVG Repo, www.svgrepo.com, Generator: SVG Repo Mixer Tools -->
<svg fill="#000000" height="800px" width="800px" version="1.1" id="Layer_1" xmlns="http://www.w3.org/2000/svg" xmlns:xlink="http://www.w3.org/1999/xlink" 
	 viewBox="0 0 100 100" enable-background="new 0 0 100 100" xml:space="preserve">
<path d="M36.8,5.9C28-2.9,8.6,12.3,8.6,29c0,16.7,5.8,19.9,5.8,33.9c0,11-1.9,9.4-1.9,18.7s3.7,15.1,14.3,15.1
	c10.6,0,14.3-5.8,14.3-15.1s-3.2-12.8-3.2-23.8c0-11,5.1-17.8,5.1-31C42.9,13.3,40.2,9.3,36.8,5.9z M22.5,91.4
	C22.3,91.8,22,92,21.6,92c-0.1,0-0.3,0-0.4-0.1c-3.9-1.6-5.7-5.2-5.7-10.9c0-0.6,0.4-1,1-1s1,0.4,1,1c0,4.9,1.4,7.7,4.5,9
	C22.5,90.3,22.7,90.9,22.5,91.4z M32.7,57.6c-0.2,0.3-0.5,0.5-0.8,0.5c-0.2,0-0.4,0-0.5-0.2c-0.5-0.3-0.6-0.9-0.3-1.4
	c0-0.1,4.3-7,4.3-16.8c0-6.1-4.6-11-7.3-13.4c-0.7-0.6-1.5-0.8-2.3-0.9c0,0,0,0,0,0c0,0,0,0,0,0c-0.8,0-1.6,0.3-2.3,0.9
	c-2.7,2.3-7.3,7.2-7.3,13.4c0,9.7,4.3,16.7,4.3,16.8c0.3,0.5,0.2,1.1-0.3,1.4c-0.5,0.3-1.1,0.2-1.4-0.3c-0.2-0.3-4.7-7.5-4.7-17.9
	c0-7,5-12.3,8-14.9c0.8-0.7,1.8-1.1,2.9-1.3l2.5-7.1c0.2-0.5,0.8-0.8,1.3-0.6c0.5,0.2,0.8,0.8,0.6,1.3l-2.3,6.6
	c0.8,0.2,1.6,0.6,2.2,1.1c3,2.6,8,7.9,8,14.9C37.4,50.1,32.9,57.3,32.7,57.6z M91.4,29C91.4,12.3,72-2.9,63.2,5.9
	c-3.4,3.4-6.1,7.4-6.1,20.8c0,13.2,5.1,20.1,5.1,31c0,11-3.2,14.5-3.2,23.8s3.7,15.1,14.3,15.1c10.6,0,14.3-5.8,14.3-15.1
	s-1.9-7.7-1.9-18.7C85.6,48.9,91.4,45.7,91.4,29z M69.6,92c-0.2,0.4-0.5,0.6-0.9,0.6c-0.1,0-0.3,0-0.4-0.1C64,90.8,62,86.9,62,80.7
	c0-0.6,0.4-1,1-1s1,0.4,1,1c0,5.4,1.6,8.6,5,10C69.5,90.9,69.8,91.5,69.6,92z M81.2,57.6c-0.2,0.3-0.5,0.5-0.8,0.5
	c-0.2,0-0.4,0-0.5-0.2c-0.5-0.3-0.6-0.9-0.3-1.4c0-0.1,4.3-7,4.3-16.8c0-6.2-4.6-11-7.3-13.4c-0.7-0.6-1.5-0.8-2.3-0.9c0,0,0,0,0,0
	c0,0,0,0,0,0c-0.8,0-1.6,0.3-2.3,0.9c-2.7,2.3-7.3,7.2-7.3,13.4c0,9.7,4.3,16.7,4.3,16.8c0.3,0.5,0.2,1.1-0.3,1.4
	c-0.5,0.3-1.1,0.2-1.4-0.3c-0.2-0.3-4.7-7.5-4.7-17.9c0-7,5-12.3,8-14.9c0.7-0.6,1.4-0.9,2.2-1.1l-2.3-6.6c-0.2-0.5,0.1-1.1,0.6-1.3
	c0.5-0.2,1.1,0.1,1.3,0.6l2.5,7.1c1,0.1,2,0.6,2.9,1.3c3,2.6,8,7.9,8,14.9C85.9,50.1,81.4,57.3,81.2,57.6z"/>
</svg>