<svg width="50" height="50" viewBox="0 0 50 50" fill="none" xmlns="http://www.w3.org/2000/svg">
<g id="carIcon">
<g id="shipping-truck--truck-shipping-delivery-transfer">
<path id="Vector" d="M29.9754 20.0245H39.9263C41.6858 20.0245 43.3731 20.7235 44.6172 21.9676C45.8613 23.2117 46.5603 24.899 46.5603 26.6585V39.9263H29.9754" fill="#131615"/>
<path id="Vector_2" d="M3.43973 39.9263H29.9754V16.7076C29.9754 15.8279 29.626 14.9842 29.0039 14.3621C28.3819 13.7401 27.5382 13.3906 26.6585 13.3906H6.75669C5.87698 13.3906 5.0333 13.7401 4.41124 14.3621C3.78919 14.9842 3.43973 15.8279 3.43973 16.7076V39.9263Z" fill="#131615"/>
<path id="Vector_3" d="M13.3906 46.5603C11.8511 46.5603 10.3747 45.9487 9.28609 44.8601C8.1975 43.7716 7.58594 42.2951 7.58594 40.7556C7.58594 39.2161 8.1975 37.7397 9.28609 36.6511C10.3747 35.5625 11.8511 34.9509 13.3906 34.9509C14.9301 34.9509 16.4066 35.5625 17.4952 36.6511C18.5837 37.7397 19.1953 39.2161 19.1953 40.7556C19.1953 42.2951 18.5837 43.7716 17.4952 44.8601C16.4066 45.9487 14.9301 46.5603 13.3906 46.5603Z" fill="#131615"/>
<path id="Vector_4" d="M29.9754 20.0245H39.9263C41.6858 20.0245 43.3731 20.7235 44.6172 21.9676C45.8613 23.2117 46.5603 24.899 46.5603 26.6585V39.9263H41.5848" stroke="#EDC63B" stroke-width="1.14" stroke-linecap="round" stroke-linejoin="round"/>
<path id="Vector_5" d="M6.75669 39.9263H3.43973V16.7076C3.43973 15.8279 3.78919 14.9842 4.41124 14.3621C5.0333 13.7401 5.87698 13.3906 6.75669 13.3906H26.6585C27.5382 13.3906 28.3819 13.7401 29.0039 14.3621C29.626 14.9842 29.9754 15.8279 29.9754 16.7076V39.9263" stroke="#EDC63B" stroke-width="1.14" stroke-linecap="round" stroke-linejoin="round"/>
<path id="Vector_6" d="M28.317 39.9264H20.0246" stroke="#EDC63B" stroke-width="1.14" stroke-linecap="round" stroke-linejoin="round"/>
<path id="Vector_7" d="M13.3906 46.5603C11.8511 46.5603 10.3747 45.9487 9.28609 44.8601C8.1975 43.7716 7.58594 42.2951 7.58594 40.7556C7.58594 39.2161 8.1975 37.7397 9.28609 36.6511C10.3747 35.5625 11.8511 34.9509 13.3906 34.9509C14.9301 34.9509 16.4066 35.5625 17.4952 36.6511C18.5837 37.7397 19.1953 39.2161 19.1953 40.7556C19.1953 42.2951 18.5837 43.7716 17.4952 44.8601C16.4066 45.9487 14.9301 46.5603 13.3906 46.5603Z" stroke="#EDC63B" stroke-width="1.14" stroke-linecap="round" stroke-linejoin="round"/>
<path id="Vector_8" d="M35.7801 46.5603C34.2406 46.5603 32.7642 45.9487 31.6756 44.8601C30.587 43.7716 29.9754 42.2951 29.9754 40.7556C29.9754 39.2161 30.587 37.7397 31.6756 36.6511C32.7642 35.5625 34.2406 34.9509 35.7801 34.9509C37.3196 34.9509 38.7961 35.5625 39.8847 36.6511C40.9732 37.7397 41.5848 39.2161 41.5848 40.7556C41.5848 42.2951 40.9732 43.7716 39.8847 44.8601C38.7961 45.9487 37.3196 46.5603 35.7801 46.5603Z" fill="#131615"/>
<path id="Vector_9" d="M35.7801 46.5603C34.2406 46.5603 32.7642 45.9487 31.6756 44.8601C30.587 43.7716 29.9754 42.2951 29.9754 40.7556C29.9754 39.2161 30.587 37.7397 31.6756 36.6511C32.7642 35.5625 34.2406 34.9509 35.7801 34.9509C37.3196 34.9509 38.7961 35.5625 39.8847 36.6511C40.9732 37.7397 41.5848 39.2161 41.5848 40.7556C41.5848 42.2951 40.9732 43.7716 39.8847 44.8601C38.7961 45.9487 37.3196 46.5603 35.7801 46.5603Z" stroke="#EDC63B" stroke-width="1.14" stroke-linecap="round" stroke-linejoin="round"/>
</g>
</g>
</svg>
