<svg width="24" height="24" viewBox="0 0 24 24" fill="none" xmlns="http://www.w3.org/2000/svg">
<g id="formkit:time">
<path id="Vector" d="M12 22.5C6.21 22.5 1.5 17.79 1.5 12C1.5 6.21 6.21 1.5 12 1.5C17.79 1.5 22.5 6.21 22.5 12C22.5 17.79 17.79 22.5 12 22.5ZM12 3C7.035 3 3 7.035 3 12C3 16.965 7.035 21 12 21C16.965 21 21 16.965 21 12C21 7.035 16.965 3 12 3Z" fill="#131615"/>
<path id="Vector_2" d="M15 15.75C14.865 15.75 14.73 15.72 14.61 15.645L10.86 13.395C10.749 13.3283 10.6573 13.2336 10.5942 13.1204C10.531 13.0073 10.4986 12.8796 10.5 12.75V6.75C10.5 6.33 10.83 6 11.25 6C11.67 6 12 6.33 12 6.75V12.33L15.39 14.355C15.5297 14.4406 15.6376 14.5694 15.6975 14.7218C15.7573 14.8742 15.7658 15.042 15.7218 15.1997C15.6777 15.3575 15.5833 15.4965 15.4531 15.5958C15.3229 15.6951 15.1638 15.7492 15 15.75Z" fill="#131615"/>
</g>
</svg>
