<svg width="24" height="25" viewBox="0 0 16 17" fill="none" xmlns="http://www.w3.org/2000/svg">
<g id="material-symbols-light:delete-outline">
<path id="Vector" d="M5.07665 13.8333C4.77887 13.8333 4.52487 13.7285 4.31465 13.5187C4.10487 13.3089 3.99998 13.0549 3.99998 12.7567V4.50001H3.33331V3.83334H5.99998V3.32001H9.99998V3.83334H12.6666V4.50001H12V12.7567C12 13.0633 11.8973 13.3193 11.692 13.5247C11.4862 13.7305 11.23 13.8333 10.9233 13.8333H5.07665ZM11.3333 4.50001H4.66665V12.7567C4.66665 12.8762 4.70509 12.9745 4.78198 13.0513C4.85887 13.1282 4.95709 13.1667 5.07665 13.1667H10.9233C11.0255 13.1667 11.1195 13.124 11.2053 13.0387C11.2906 12.9529 11.3333 12.8589 11.3333 12.7567V4.50001ZM6.53865 11.8333H7.20531V5.83334H6.53865V11.8333ZM8.79465 11.8333H9.46131V5.83334H8.79465V11.8333Z" fill="#EDC63B"/>
</g>
</svg>
