<svg width="28" height="24" viewBox="0 0 28 24" fill="none" xmlns="http://www.w3.org/2000/svg">
<g id="formkit:email" clip-path="url(#clip0_71_180)">
<path id="Vector" d="M24.8576 22.2857H2.57192C1.14906 22.2857 0.000488281 21.1371 0.000488281 19.7143V4.28571C0.000488281 2.86285 1.14906 1.71428 2.57192 1.71428H24.8576C26.2805 1.71428 27.4291 2.86285 27.4291 4.28571V19.7143C27.4291 21.1371 26.2805 22.2857 24.8576 22.2857ZM2.57192 3.42856C2.09192 3.42856 1.71477 3.80571 1.71477 4.28571V19.7143C1.71477 20.1943 2.09192 20.5714 2.57192 20.5714H24.8576C25.3376 20.5714 25.7148 20.1943 25.7148 19.7143V4.28571C25.7148 3.80571 25.3376 3.42856 24.8576 3.42856H2.57192Z" fill="#131615"/>
<path id="Vector_2" d="M13.7148 15.36C12.5148 15.36 11.4176 14.88 10.5948 14.0057L1.59478 4.44001C1.26907 4.09715 1.28621 3.54858 1.62907 3.22286C1.97192 2.89715 2.5205 2.91429 2.84621 3.25715L11.8462 12.8229C12.8234 13.8686 14.6062 13.8686 15.5834 12.8229L24.5834 3.27429C24.9091 2.93144 25.4576 2.91429 25.8005 3.24001C26.1434 3.56572 26.1605 4.11429 25.8348 4.45715L16.8348 14.0229C16.0119 14.8972 14.9148 15.3772 13.7148 15.3772V15.36Z" fill="#131615"/>
</g>
<defs>
<clipPath id="clip0_71_180">
<rect width="27.43" height="24" fill="white"/>
</clipPath>
</defs>
</svg>
