<svg width="51" height="50" viewBox="0 0 51 50" fill="none" xmlns="http://www.w3.org/2000/svg">
<g id="Frame">
<g id="star-badge--ribbon-reward-like-social-rating-media">
<path id="Vector 2356" d="M11.8401 38.5738L3.94388 40.6863L11.2531 28.0245L20.3 35.483L13.9592 46.4666L11.8401 38.5738Z" fill="#131615"/>
<path id="Vector 2354" d="M39.1566 38.5737L47.0561 40.6896L39.7469 28.0278L30.7 35.4862L37.0408 46.4699L39.1566 38.5737Z" fill="#131615"/>
<path id="Vector 2355" d="M39.7934 28.1074L47.0561 40.6896L39.1566 38.5737L37.0408 46.4699L30.7464 35.5625" stroke="#EDC63B" stroke-linecap="round" stroke-linejoin="round"/>
<path id="Ellipse 19" d="M41.9258 19.9659C41.9258 24.3249 40.1942 28.5054 37.1119 31.5877C34.0296 34.67 29.8491 36.4016 25.4901 36.4016C21.131 36.4016 16.9505 34.67 13.8682 31.5877C10.786 28.5054 9.05434 24.3249 9.05434 19.9659C9.05434 15.6068 10.786 11.4264 13.8682 8.34406C16.9505 5.26177 21.131 3.53015 25.4901 3.53015C29.8491 3.53015 34.0296 5.26177 37.1119 8.34406C40.1942 11.4264 41.9258 15.6068 41.9258 19.9659Z" fill="#131615"/>
<path id="Ellipse 20" d="M41.9258 19.9659C41.9258 24.3249 40.1942 28.5054 37.1119 31.5877C34.0296 34.67 29.8491 36.4016 25.4901 36.4016C21.131 36.4016 16.9505 34.67 13.8682 31.5877C10.786 28.5054 9.05434 24.3249 9.05434 19.9659C9.05434 15.6068 10.786 11.4264 13.8682 8.34406C16.9505 5.26177 21.131 3.53015 25.4901 3.53015C29.8491 3.53015 34.0296 5.26177 37.1119 8.34406C40.1942 11.4264 41.9258 15.6068 41.9258 19.9659Z" stroke="#EDC63B" stroke-linecap="round" stroke-linejoin="round"/>
<path id="Vector" d="M26.1633 11.0416L28.4283 15.5982C28.4787 15.7132 28.5586 15.8127 28.66 15.8867C28.7613 15.9607 28.8805 16.0065 29.0054 16.0194L34.0362 16.7822C34.1802 16.8006 34.3159 16.8597 34.4275 16.9525C34.539 17.0454 34.6218 17.1681 34.666 17.3064C34.7102 17.4446 34.7141 17.5926 34.6771 17.7329C34.6402 17.8733 34.5639 18.0002 34.4574 18.0987L30.7398 21.624C30.684 21.7298 30.6549 21.8476 30.6549 21.9672C30.6549 22.0869 30.684 22.2047 30.7398 22.3105L31.4528 27.3115C31.4837 27.4564 31.4718 27.6072 31.4184 27.7455C31.365 27.8837 31.2726 28.0034 31.1523 28.09C31.0319 28.1765 30.889 28.2261 30.741 28.2328C30.5929 28.2394 30.4462 28.2027 30.3186 28.1273L25.8416 25.7595C25.7259 25.7073 25.6004 25.6803 25.4735 25.6803C25.3465 25.6803 25.2211 25.7073 25.1054 25.7595L20.6283 28.1273C20.5009 28.2007 20.3549 28.2357 20.2081 28.2281C20.0612 28.2204 19.9197 28.1705 19.8005 28.0843C19.6814 27.9981 19.5897 27.8793 19.5365 27.7422C19.4833 27.6051 19.4709 27.4555 19.5008 27.3115L20.3431 22.3105C20.3796 22.194 20.3866 22.0703 20.3635 21.9505C20.3403 21.8307 20.2877 21.7185 20.2105 21.624L16.4962 18.0722C16.3964 17.9725 16.3263 17.847 16.2936 17.7098C16.2609 17.5726 16.2668 17.4291 16.3108 17.295C16.3548 17.161 16.4351 17.0418 16.5428 16.9507C16.6504 16.8596 16.7812 16.8001 16.9207 16.7788L21.9515 16.0459C22.0764 16.033 22.1955 15.9872 22.2969 15.9133C22.3983 15.8393 22.4782 15.7397 22.5286 15.6248L24.7936 11.0714C24.8539 10.9421 24.9493 10.8323 25.0689 10.7545C25.1885 10.6766 25.3275 10.6339 25.4702 10.6311C25.6128 10.6284 25.7534 10.6657 25.8759 10.7388C25.9985 10.812 26.098 10.9147 26.1633 11.0416Z" fill="#131615"/>
<path id="Vector_2" d="M26.1633 11.0416L28.4283 15.5982C28.4787 15.7132 28.5586 15.8127 28.66 15.8867C28.7613 15.9607 28.8805 16.0065 29.0054 16.0194L34.0362 16.7822C34.1802 16.8006 34.3159 16.8597 34.4275 16.9525C34.539 17.0454 34.6218 17.1681 34.666 17.3064C34.7102 17.4446 34.7141 17.5926 34.6771 17.7329C34.6402 17.8733 34.5639 18.0002 34.4574 18.0987L30.7398 21.624C30.684 21.7298 30.6549 21.8476 30.6549 21.9672C30.6549 22.0868 30.684 22.2047 30.7398 22.3105L31.4528 27.3115C31.4837 27.4564 31.4718 27.6072 31.4184 27.7455C31.365 27.8837 31.2726 28.0034 31.1523 28.09C31.0319 28.1765 30.889 28.2261 30.741 28.2328C30.5929 28.2394 30.4462 28.2027 30.3186 28.1273L25.8416 25.7595C25.7259 25.7073 25.6004 25.6803 25.4735 25.6803C25.3465 25.6803 25.2211 25.7073 25.1054 25.7595L20.6283 28.1273C20.5009 28.2007 20.3549 28.2357 20.2081 28.2281C20.0612 28.2204 19.9197 28.1705 19.8005 28.0843C19.6814 27.9981 19.5897 27.8793 19.5365 27.7422C19.4833 27.6051 19.4709 27.4555 19.5008 27.3115L20.3431 22.3105C20.3796 22.194 20.3866 22.0703 20.3635 21.9505C20.3403 21.8307 20.2877 21.7185 20.2105 21.624L16.4962 18.0722C16.3964 17.9725 16.3263 17.847 16.2936 17.7098C16.2609 17.5726 16.2668 17.4291 16.3108 17.295C16.3548 17.161 16.4351 17.0418 16.5428 16.9507C16.6504 16.8596 16.7812 16.8001 16.9207 16.7788L21.9515 16.0459C22.0764 16.033 22.1955 15.9872 22.2969 15.9133C22.3983 15.8393 22.4782 15.7397 22.5286 15.6248L24.7936 11.0714C24.8539 10.9421 24.9493 10.8323 25.0689 10.7545C25.1885 10.6766 25.3275 10.6339 25.4702 10.6311C25.6128 10.6284 25.7534 10.6657 25.8759 10.7388C25.9985 10.812 26.098 10.9147 26.1633 11.0416Z" stroke="#EDC63B" stroke-linecap="round" stroke-linejoin="round"/>
<path id="Vector 2353" d="M11.2133 28.0975L3.94388 40.6863L11.8401 38.5705L13.9592 46.47L20.2602 35.5526" stroke="#EDC63B" stroke-linecap="round" stroke-linejoin="round"/>
</g>
</g>
</svg>
