<svg width="24" height="24" viewBox="0 0 24 24" fill="none" xmlns="http://www.w3.org/2000/svg">
<g id="tdesign:shop">
<path id="Vector" d="M7.5 5.5C7.5 4.30653 7.97411 3.16193 8.81802 2.31802C9.66193 1.47411 10.8065 1 12 1C13.1935 1 14.3381 1.47411 15.182 2.31802C16.0259 3.16193 16.5 4.30653 16.5 5.5V7H21V23H3V7H7.5V5.5ZM7.5 9H5V21H19V9H16.5V12H14.5V9H9.5V12H7.5V9ZM14.5 7V5.5C14.5 4.83696 14.2366 4.20107 13.7678 3.73223C13.2989 3.26339 12.663 3 12 3C11.337 3 10.7011 3.26339 10.2322 3.73223C9.76339 4.20107 9.5 4.83696 9.5 5.5V7H14.5Z" fill="#FEFBEC"/>
</g>
</svg>
