<svg width="50" height="50" viewBox="0 0 50 50" fill="none" xmlns="http://www.w3.org/2000/svg">
<g id="Frame">
<g id="wallet--money-payment-finance-wallet">
<path id="Vector" d="M44.9018 26.6584H33.2925C32.8526 26.6584 32.4308 26.8332 32.1197 27.1442C31.8087 27.4552 31.634 27.8771 31.634 28.3169V34.9509C31.634 35.3907 31.8087 35.8126 32.1197 36.1236C32.4308 36.4346 32.8526 36.6093 33.2925 36.6093H44.9018C45.3417 36.6093 45.7635 36.4346 46.0746 36.1236C46.3856 35.8126 46.5603 35.3907 46.5603 34.9509V28.3169C46.5603 27.8771 46.3856 27.4552 46.0746 27.1442C45.7635 26.8332 45.3417 26.6584 44.9018 26.6584Z" fill="#131615"/>
<path id="Subtract" fill-rule="evenodd" clip-rule="evenodd" d="M3.43976 18.3661V43.2433C3.43976 44.123 3.78922 44.9667 4.41127 45.5887C5.03333 46.2108 5.87701 46.5602 6.75672 46.5602H38.2679C39.1476 46.5602 39.9913 46.2108 40.6133 45.5887C41.2354 44.9667 41.5848 44.123 41.5848 43.2433V36.6094H33.2924C32.8526 36.6094 32.4307 36.4346 32.1197 36.1236C31.8087 35.8126 31.634 35.3907 31.634 34.9509V28.3169C31.634 27.8771 31.8087 27.4552 32.1197 27.1442C32.4307 26.8332 32.8526 26.6585 33.2924 26.6585H41.5848V20.0245C41.5848 19.1448 41.2354 18.3011 40.6133 17.6791C39.9913 17.057 39.1476 16.7076 38.2679 16.7076H34.9509V8.41516H13.3907C10.7515 8.41516 8.22046 9.46356 6.35431 11.3297C4.48815 13.1959 3.43976 15.7269 3.43976 18.3661Z" fill="#131615"/>
<path id="Vector_2" d="M44.9018 26.6584H33.2925C32.8526 26.6584 32.4308 26.8332 32.1197 27.1442C31.8087 27.4552 31.634 27.8771 31.634 28.3169V34.9509C31.634 35.3907 31.8087 35.8126 32.1197 36.1236C32.4308 36.4346 32.8526 36.6093 33.2925 36.6093H44.9018C45.3417 36.6093 45.7635 36.4346 46.0746 36.1236C46.3856 35.8126 46.5603 35.3907 46.5603 34.9509V28.3169C46.5603 27.8771 46.3856 27.4552 46.0746 27.1442C45.7635 26.8332 45.3417 26.6584 44.9018 26.6584Z" stroke="#EDC63B" stroke-width="1.14" stroke-linecap="round" stroke-linejoin="round"/>
<path id="Vector_3" d="M41.5848 36.6094V43.2433C41.5848 44.123 41.2354 44.9667 40.6133 45.5887C39.9913 46.2108 39.1476 46.5603 38.2679 46.5603H6.75672C5.87701 46.5603 5.03333 46.2108 4.41127 45.5887C3.78922 44.9667 3.43976 44.123 3.43976 43.2433V18.3661C3.43976 15.7269 4.48815 13.1959 6.35431 11.3297C8.22046 9.46356 10.7515 8.41516 13.3907 8.41516H34.9509V16.7076" stroke="#EDC63B" stroke-width="1.14" stroke-linecap="round" stroke-linejoin="round"/>
<path id="Vector_4" d="M41.5848 26.6584V20.0245C41.5848 19.1448 41.2354 18.3011 40.6133 17.679C39.9913 17.057 39.1476 16.7075 38.2679 16.7075H13.3906" stroke="#EDC63B" stroke-width="1.14" stroke-linecap="round" stroke-linejoin="round"/>
</g>
</g>
</svg>
