<svg width="23" height="24" viewBox="0 0 23 24" fill="none" xmlns="http://www.w3.org/2000/svg">
<g id="formkit:telephone">
<path id="Vector" d="M15.5699 2.27999C14.9099 2.35499 14.3849 2.89499 14.2949 3.55499L13.1399 8.45999C12.9749 9.14999 13.3199 9.86999 13.9649 10.17L14.8499 10.575C14.1899 12.3 12.7349 13.485 12.7349 13.485C12.7349 13.485 11.5349 14.94 9.82488 15.6L9.41988 14.715C9.27419 14.401 9.02417 14.1471 8.71239 13.9967C8.40061 13.8463 8.04634 13.8086 7.70988 13.89L2.80487 15.045C2.14487 15.135 1.60487 15.66 1.52987 16.32C1.37987 17.55 1.42487 19.47 2.80487 20.49C2.80487 20.49 9.02988 24.87 16.5899 17.31C24.1499 9.74999 19.7699 3.52499 19.7699 3.52499C18.7349 2.14499 16.8149 2.11499 15.5999 2.24999L15.5699 2.27999Z" fill="#131615"/>
</g>
</svg>
