<svg width="24" height="25" viewBox="0 0 16 17" fill="none" xmlns="http://www.w3.org/2000/svg">
<g id="ph:plus-thin">
<path id="Vector" d="M13.75 8.5C13.75 8.5663 13.7237 8.62989 13.6768 8.67678C13.6299 8.72366 13.5663 8.75 13.5 8.75H8.25V14C8.25 14.0663 8.22366 14.1299 8.17678 14.1768C8.12989 14.2237 8.0663 14.25 8 14.25C7.9337 14.25 7.87011 14.2237 7.82322 14.1768C7.77634 14.1299 7.75 14.0663 7.75 14V8.75H2.5C2.4337 8.75 2.37011 8.72366 2.32322 8.67678C2.27634 8.62989 2.25 8.5663 2.25 8.5C2.25 8.4337 2.27634 8.37011 2.32322 8.32322C2.37011 8.27634 2.4337 8.25 2.5 8.25H7.75V3C7.75 2.9337 7.77634 2.87011 7.82322 2.82322C7.87011 2.77634 7.9337 2.75 8 2.75C8.0663 2.75 8.12989 2.77634 8.17678 2.82322C8.22366 2.87011 8.25 2.9337 8.25 3V8.25H13.5C13.5663 8.25 13.6299 8.27634 13.6768 8.32322C13.7237 8.37011 13.75 8.4337 13.75 8.5Z" fill="#EDC63B"/>
</g>
</svg>
