<svg width="46" height="46" viewBox="0 0 46 46" fill="none" xmlns="http://www.w3.org/2000/svg">
<g id="customer-support-1--customer-headset-help-microphone-phone-support">
<path id="Vector" d="M9.73215 23.0011V14.2775C9.75805 12.5627 10.1221 10.8699 10.8033 9.29606C11.4846 7.72221 12.4697 6.29827 13.7022 5.1058C14.9347 3.91333 16.3904 2.97579 17.9859 2.34688C19.5814 1.71798 21.2853 1.41007 23 1.44082C24.7147 1.41007 26.4186 1.71798 28.0141 2.34688C29.6096 2.97579 31.0653 3.91333 32.2978 5.1058C33.5303 6.29827 34.5154 7.72221 35.1967 9.29606C35.8779 10.8699 36.242 12.5627 36.2679 14.2775V23.0011" stroke="#EDC63B" stroke-width="1.14" stroke-linecap="round" stroke-linejoin="round"/>
<path id="Vector_2" d="M4.75669 18.0256H8.07366C8.51351 18.0256 8.93536 18.2004 9.24638 18.5114C9.55741 18.8224 9.73214 19.2443 9.73214 19.6841V29.635C9.73214 30.0749 9.55741 30.4967 9.24638 30.8077C8.93536 31.1188 8.51351 31.2935 8.07366 31.2935H4.75669C3.87698 31.2935 3.0333 30.944 2.41124 30.322C1.78919 29.6999 1.43973 28.8562 1.43973 27.9765V21.3426C1.43973 20.4629 1.78919 19.6192 2.41124 18.9972C3.0333 18.3751 3.87698 18.0256 4.75669 18.0256Z" fill="#131615"/>
<path id="Vector_3" d="M41.2433 31.2935H37.9263C37.4865 31.2935 37.0646 31.1188 36.7536 30.8077C36.4426 30.4967 36.2679 30.0749 36.2679 29.635V19.6841C36.2679 19.2443 36.4426 18.8224 36.7536 18.5114C37.0646 18.2004 37.4865 18.0256 37.9263 18.0256H41.2433C42.123 18.0256 42.9667 18.3751 43.5887 18.9972C44.2108 19.6192 44.5603 20.4629 44.5603 21.3426V27.9765C44.5603 28.8562 44.2108 29.6999 43.5887 30.322C42.9667 30.944 42.123 31.2935 41.2433 31.2935Z" fill="#131615"/>
<path id="Vector_4" d="M29.6339 40.4151C31.3933 40.4151 33.0807 39.7162 34.3248 38.4721C35.5689 37.228 36.2678 35.5406 36.2678 33.7812V26.318" stroke="#EDC63B" stroke-width="1.14" stroke-linecap="round" stroke-linejoin="round"/>
<path id="Vector_5" d="M29.6339 40.4151C29.6339 41.5148 29.1971 42.5694 28.4195 43.3469C27.642 44.1245 26.5874 44.5613 25.4877 44.5613H20.5123C19.4126 44.5613 18.358 44.1245 17.5805 43.3469C16.8029 42.5694 16.3661 41.5148 16.3661 40.4151C16.3661 39.3155 16.8029 38.2609 17.5805 37.4833C18.358 36.7058 19.4126 36.2689 20.5123 36.2689H25.4877C26.5874 36.2689 27.642 36.7058 28.4195 37.4833C29.1971 38.2609 29.6339 39.3155 29.6339 40.4151Z" fill="#131615"/>
<path id="Vector_6" d="M4.75669 18.0256H8.07366C8.51351 18.0256 8.93536 18.2004 9.24638 18.5114C9.55741 18.8224 9.73214 19.2443 9.73214 19.6841V29.635C9.73214 30.0749 9.55741 30.4967 9.24638 30.8077C8.93536 31.1188 8.51351 31.2935 8.07366 31.2935H4.75669C3.87698 31.2935 3.0333 30.944 2.41124 30.322C1.78919 29.6999 1.43973 28.8562 1.43973 27.9765V21.3426C1.43973 20.4629 1.78919 19.6192 2.41124 18.9972C3.0333 18.3751 3.87698 18.0256 4.75669 18.0256Z" stroke="#EDC63B" stroke-width="1.14" stroke-linecap="round" stroke-linejoin="round"/>
<path id="Vector_7" d="M41.2433 31.2935H37.9263C37.4865 31.2935 37.0646 31.1188 36.7536 30.8077C36.4426 30.4967 36.2679 30.0749 36.2679 29.635V19.6841C36.2679 19.2443 36.4426 18.8224 36.7536 18.5114C37.0646 18.2004 37.4865 18.0256 37.9263 18.0256H41.2433C42.123 18.0256 42.9667 18.3751 43.5887 18.9972C44.2108 19.6192 44.5603 20.4629 44.5603 21.3426V27.9765C44.5603 28.8562 44.2108 29.6999 43.5887 30.322C42.9667 30.944 42.123 31.2935 41.2433 31.2935Z" stroke="#EDC63B" stroke-width="1.14" stroke-linecap="round" stroke-linejoin="round"/>
<path id="Vector_8" d="M29.6339 40.4151C29.6339 41.5148 29.1971 42.5694 28.4195 43.3469C27.642 44.1245 26.5874 44.5613 25.4877 44.5613H20.5123C19.4126 44.5613 18.358 44.1245 17.5805 43.3469C16.8029 42.5694 16.3661 41.5148 16.3661 40.4151C16.3661 39.3155 16.8029 38.2609 17.5805 37.4833C18.358 36.7058 19.4126 36.2689 20.5123 36.2689H25.4877C26.5874 36.2689 27.642 36.7058 28.4195 37.4833C29.1971 38.2609 29.6339 39.3155 29.6339 40.4151Z" stroke="#EDC63B" stroke-width="1.14" stroke-linecap="round" stroke-linejoin="round"/>
</g>
</svg>
