<svg width="24" height="24" viewBox="0 0 24 24" fill="none" xmlns="http://www.w3.org/2000/svg">
<g id="mingcute:up-fill" clip-path="url(#clip0_213_370)">
<g id="Group">
<path id="Vector" fill-rule="evenodd" clip-rule="evenodd" d="M10.9401 7.93999C11.2214 7.65909 11.6026 7.50131 12.0001 7.50131C12.3976 7.50131 12.7789 7.65909 13.0601 7.93999L18.7181 13.596C18.8574 13.7353 18.9679 13.9007 19.0432 14.0827C19.1185 14.2648 19.1573 14.4598 19.1573 14.6568C19.1572 14.8538 19.1184 15.0489 19.0429 15.2309C18.9675 15.4129 18.857 15.5782 18.7176 15.7175C18.5783 15.8568 18.4129 15.9672 18.2309 16.0426C18.0488 16.1179 17.8538 16.1567 17.6568 16.1566C17.4598 16.1566 17.2647 16.1177 17.0827 16.0423C16.9007 15.9669 16.7354 15.8563 16.5961 15.717L12.0001 11.122L7.40412 15.718C7.26582 15.8613 7.10036 15.9757 6.91739 16.0544C6.73442 16.1331 6.53761 16.1745 6.33844 16.1764C6.13928 16.1782 5.94174 16.1403 5.75736 16.065C5.57298 15.9897 5.40545 15.8784 5.26455 15.7376C5.12364 15.5968 5.01218 15.4294 4.93668 15.2451C4.86117 15.0608 4.82312 14.8633 4.82476 14.6641C4.82639 14.4649 4.86768 14.2681 4.94621 14.085C5.02473 13.902 5.13893 13.7364 5.28212 13.598L10.9401 7.93999Z" fill="#131615"/>
</g>
</g>
<defs>
<clipPath id="clip0_213_370">
<rect width="24" height="24" fill="white"/>
</clipPath>
</defs>
</svg>
